<?xml version="1.0" encoding="UTF-8" standalone="no"?>
<!DOCTYPE svg PUBLIC "-//W3C//DTD SVG 1.1//EN"
 "http://www.w3.org/Graphics/SVG/1.1/DTD/svg11.dtd">
<!-- Generated by graphviz version 13.1.2 (20250808.2320)
 -->
<!-- Pages: 1 -->
<svg width="725pt" height="268pt"
 viewBox="0.00 0.00 725.00 268.00" xmlns="http://www.w3.org/2000/svg" xmlns:xlink="http://www.w3.org/1999/xlink">
<g id="graph0" class="graph" transform="scale(1 1) rotate(0) translate(4 263.5)">
<polygon fill="white" stroke="none" points="-4,4 -4,-263.5 721.25,-263.5 721.25,4 -4,4"/>
<!-- 140050942954544 -->
<g id="node1" class="node">
<title>140050942954544</title>
<polygon fill="none" stroke="black" points="211.38,-46.5 211.38,-120 295.62,-120 295.62,-46.5 211.38,-46.5"/>
<text xml:space="preserve" text-anchor="middle" x="253.5" y="-102.7" font-family="Times,serif" font-size="14.00">e</text>
<polyline fill="none" stroke="black" points="211.38,-95.5 295.62,-95.5"/>
<text xml:space="preserve" text-anchor="middle" x="253.5" y="-78.2" font-family="Times,serif" font-size="14.00">data &#45;6.0000</text>
<polyline fill="none" stroke="black" points="211.38,-71 295.62,-71"/>
<text xml:space="preserve" text-anchor="middle" x="253.5" y="-53.7" font-family="Times,serif" font-size="14.00">grad 0.0000</text>
</g>
<!-- 140050942954848+ -->
<g id="node7" class="node">
<title>140050942954848+</title>
<ellipse fill="none" stroke="black" cx="359.75" cy="-129.25" rx="27" ry="18"/>
<text xml:space="preserve" text-anchor="middle" x="359.75" y="-124.2" font-family="Times,serif" font-size="14.00">+</text>
</g>
<!-- 140050942954544&#45;&gt;140050942954848+ -->
<g id="edge9" class="edge">
<title>140050942954544&#45;&gt;140050942954848+</title>
<path fill="none" stroke="black" d="M296,-101.56C306.07,-106 316.69,-110.69 326.27,-114.92"/>
<polygon fill="black" stroke="black" points="324.61,-118.01 335.17,-118.85 327.44,-111.61 324.61,-118.01"/>
</g>
<!-- 140050942954544* -->
<g id="node2" class="node">
<title>140050942954544*</title>
<ellipse fill="none" stroke="black" cx="147.25" cy="-83.25" rx="27" ry="18"/>
<text xml:space="preserve" text-anchor="middle" x="147.25" y="-78.2" font-family="Times,serif" font-size="14.00">*</text>
</g>
<!-- 140050942954544*&#45;&gt;140050942954544 -->
<g id="edge1" class="edge">
<title>140050942954544*&#45;&gt;140050942954544</title>
<path fill="none" stroke="black" d="M174.56,-83.25C182.27,-83.25 191,-83.25 199.75,-83.25"/>
<polygon fill="black" stroke="black" points="199.67,-86.75 209.67,-83.25 199.67,-79.75 199.67,-86.75"/>
</g>
<!-- 140050944388752 -->
<g id="node3" class="node">
<title>140050944388752</title>
<polygon fill="none" stroke="black" points="0,-93.5 0,-167 84.25,-167 84.25,-93.5 0,-93.5"/>
<text xml:space="preserve" text-anchor="middle" x="42.12" y="-149.7" font-family="Times,serif" font-size="14.00">b</text>
<polyline fill="none" stroke="black" points="0,-142.5 84.25,-142.5"/>
<text xml:space="preserve" text-anchor="middle" x="42.12" y="-125.2" font-family="Times,serif" font-size="14.00">data &#45;3.0000</text>
<polyline fill="none" stroke="black" points="0,-118 84.25,-118"/>
<text xml:space="preserve" text-anchor="middle" x="42.12" y="-100.7" font-family="Times,serif" font-size="14.00">grad 0.0000</text>
</g>
<!-- 140050944388752&#45;&gt;140050942954544* -->
<g id="edge5" class="edge">
<title>140050944388752&#45;&gt;140050942954544*</title>
<path fill="none" stroke="black" d="M84.48,-111.4C94.3,-106.93 104.65,-102.21 114,-97.95"/>
<polygon fill="black" stroke="black" points="115.41,-101.15 123.05,-93.82 112.5,-94.78 115.41,-101.15"/>
</g>
<!-- 140050944693920 -->
<g id="node4" class="node">
<title>140050944693920</title>
<polygon fill="none" stroke="black" points="1.5,-0.5 1.5,-74 82.75,-74 82.75,-0.5 1.5,-0.5"/>
<text xml:space="preserve" text-anchor="middle" x="42.12" y="-56.7" font-family="Times,serif" font-size="14.00">a</text>
<polyline fill="none" stroke="black" points="1.5,-49.5 82.75,-49.5"/>
<text xml:space="preserve" text-anchor="middle" x="42.12" y="-32.2" font-family="Times,serif" font-size="14.00">data 2.0000</text>
<polyline fill="none" stroke="black" points="1.5,-25 82.75,-25"/>
<text xml:space="preserve" text-anchor="middle" x="42.12" y="-7.7" font-family="Times,serif" font-size="14.00">grad 0.0000</text>
</g>
<!-- 140050944693920&#45;&gt;140050942954544* -->
<g id="edge4" class="edge">
<title>140050944693920&#45;&gt;140050942954544*</title>
<path fill="none" stroke="black" d="M83,-55.03C93.13,-59.55 103.89,-64.36 113.62,-68.69"/>
<polygon fill="black" stroke="black" points="112.12,-71.86 122.68,-72.74 114.97,-65.47 112.12,-71.86"/>
</g>
<!-- 140050944389392 -->
<g id="node5" class="node">
<title>140050944389392</title>
<polygon fill="none" stroke="black" points="210.25,-139.5 210.25,-213 296.75,-213 296.75,-139.5 210.25,-139.5"/>
<text xml:space="preserve" text-anchor="middle" x="253.5" y="-195.7" font-family="Times,serif" font-size="14.00">c</text>
<polyline fill="none" stroke="black" points="210.25,-188.5 296.75,-188.5"/>
<text xml:space="preserve" text-anchor="middle" x="253.5" y="-171.2" font-family="Times,serif" font-size="14.00">data 10.0000</text>
<polyline fill="none" stroke="black" points="210.25,-164 296.75,-164"/>
<text xml:space="preserve" text-anchor="middle" x="253.5" y="-146.7" font-family="Times,serif" font-size="14.00">grad 0.0000</text>
</g>
<!-- 140050944389392&#45;&gt;140050942954848+ -->
<g id="edge8" class="edge">
<title>140050944389392&#45;&gt;140050942954848+</title>
<path fill="none" stroke="black" d="M297.2,-157C306.98,-152.59 317.22,-147.97 326.48,-143.8"/>
<polygon fill="black" stroke="black" points="327.75,-147.07 335.43,-139.76 324.87,-140.68 327.75,-147.07"/>
</g>
<!-- 140050942954848 -->
<g id="node6" class="node">
<title>140050942954848</title>
<polygon fill="none" stroke="black" points="424.25,-92.5 424.25,-166 505.5,-166 505.5,-92.5 424.25,-92.5"/>
<text xml:space="preserve" text-anchor="middle" x="464.88" y="-148.7" font-family="Times,serif" font-size="14.00">d</text>
<polyline fill="none" stroke="black" points="424.25,-141.5 505.5,-141.5"/>
<text xml:space="preserve" text-anchor="middle" x="464.88" y="-124.2" font-family="Times,serif" font-size="14.00">data 4.0000</text>
<polyline fill="none" stroke="black" points="424.25,-117 505.5,-117"/>
<text xml:space="preserve" text-anchor="middle" x="464.88" y="-99.7" font-family="Times,serif" font-size="14.00">grad 0.0000</text>
</g>
<!-- 140050947189184* -->
<g id="node9" class="node">
<title>140050947189184*</title>
<ellipse fill="none" stroke="black" cx="570" cy="-175.25" rx="27" ry="18"/>
<text xml:space="preserve" text-anchor="middle" x="570" y="-170.2" font-family="Times,serif" font-size="14.00">*</text>
</g>
<!-- 140050942954848&#45;&gt;140050947189184* -->
<g id="edge6" class="edge">
<title>140050942954848&#45;&gt;140050947189184*</title>
<path fill="none" stroke="black" d="M505.75,-147.03C515.88,-151.55 526.64,-156.36 536.37,-160.69"/>
<polygon fill="black" stroke="black" points="534.87,-163.86 545.43,-164.74 537.72,-157.47 534.87,-163.86"/>
</g>
<!-- 140050942954848+&#45;&gt;140050942954848 -->
<g id="edge2" class="edge">
<title>140050942954848+&#45;&gt;140050942954848</title>
<path fill="none" stroke="black" d="M387.04,-129.25C394.84,-129.25 403.67,-129.25 412.49,-129.25"/>
<polygon fill="black" stroke="black" points="412.47,-132.75 422.47,-129.25 412.47,-125.75 412.47,-132.75"/>
</g>
<!-- 140050947189184 -->
<g id="node8" class="node">
<title>140050947189184</title>
<polygon fill="none" stroke="black" points="633,-138.5 633,-212 717.25,-212 717.25,-138.5 633,-138.5"/>
<text xml:space="preserve" text-anchor="middle" x="675.12" y="-194.7" font-family="Times,serif" font-size="14.00">L</text>
<polyline fill="none" stroke="black" points="633,-187.5 717.25,-187.5"/>
<text xml:space="preserve" text-anchor="middle" x="675.12" y="-170.2" font-family="Times,serif" font-size="14.00">data &#45;8.0000</text>
<polyline fill="none" stroke="black" points="633,-163 717.25,-163"/>
<text xml:space="preserve" text-anchor="middle" x="675.12" y="-145.7" font-family="Times,serif" font-size="14.00">grad 0.0000</text>
</g>
<!-- 140050947189184*&#45;&gt;140050947189184 -->
<g id="edge3" class="edge">
<title>140050947189184*&#45;&gt;140050947189184</title>
<path fill="none" stroke="black" d="M597.29,-175.25C604.67,-175.25 612.98,-175.25 621.32,-175.25"/>
<polygon fill="black" stroke="black" points="621.14,-178.75 631.14,-175.25 621.14,-171.75 621.14,-178.75"/>
</g>
<!-- 140050947329488 -->
<g id="node10" class="node">
<title>140050947329488</title>
<polygon fill="none" stroke="black" points="422.75,-185.5 422.75,-259 507,-259 507,-185.5 422.75,-185.5"/>
<text xml:space="preserve" text-anchor="middle" x="464.88" y="-241.7" font-family="Times,serif" font-size="14.00">f</text>
<polyline fill="none" stroke="black" points="422.75,-234.5 507,-234.5"/>
<text xml:space="preserve" text-anchor="middle" x="464.88" y="-217.2" font-family="Times,serif" font-size="14.00">data &#45;2.0000</text>
<polyline fill="none" stroke="black" points="422.75,-210 507,-210"/>
<text xml:space="preserve" text-anchor="middle" x="464.88" y="-192.7" font-family="Times,serif" font-size="14.00">grad 0.0000</text>
</g>
<!-- 140050947329488&#45;&gt;140050947189184* -->
<g id="edge7" class="edge">
<title>140050947329488&#45;&gt;140050947189184*</title>
<path fill="none" stroke="black" d="M507.23,-203.4C517.05,-198.93 527.4,-194.21 536.75,-189.95"/>
<polygon fill="black" stroke="black" points="538.16,-193.15 545.8,-185.82 535.25,-186.78 538.16,-193.15"/>
</g>
</g>
</svg>
